<svg xmlns="http://www.w3.org/2000/svg" viewBox="0 0 360.41 354.13"><defs><style>.dark{fill:#1d3a5b}.gold{fill:#b6934c}.light{fill:#f6f0e1}@media (prefers-color-scheme:dark){.dark{fill:#2a4a6b}.gold{fill:#d4af37}.light{fill:#fefdf8}}</style></defs><path d="M175.07 354C97.74 352.53 25.27 295.61 5.9 220.66-25.3 103.48 71.69-7.56 191.06.4c51.07 3.37 99.88 29.98 131.63 69.93 36.12 45.12 47.56 107.44 28.83 162.23-24.4 73.21-99.45 124.57-176.45 121.44m9.12-10.56c94.23-1.27 174.1-84.91 165.36-179.8-7.57-90.79-91.1-158.31-181.04-152.14-124.87 8.43-199.82 142.71-133 250.94 31.14 50.15 89.4 82.9 148.68 81" class="dark"/><path d="M184.21 343c-59.28 1.9-117.54-30.84-148.68-81-66.82-108.24 8.14-242.52 133-250.94 90.03-6.11 173.41 61.27 181.04 152.14 8.74 94.89-71.13 178.53-165.36 179.8" class="light"/><path d="M236.79 189.85c-6-19.34-12.43-39.43-18.3-58.82-2.71-9.2-6.18-19.27-8.32-28.59-2.42-9.74-4.39-24.74 8.01-28.1 1.95-1.03 1.55-5.64.31-5.99-2.42-.94-8.1-.35-10.61-.2-9.77.87-23.52 3.18-27.48 13.41-.62 3.57 1.18 8.03 1.81 11.52 1.14 4.66 3.32 12.2 4.66 16.87 3.99 13.91 8.71 29.59 12.96 43.49 2.49 8.22 5.58 18.03 8.03 26.26.41.4 2.37 10.41 3.61 10.15zM160.21 156.13c4.46-15.99 9.48-32.7 14.09-48.64 1.76-6.46 3.89-14.51 3.55-21.21-3.45-16.29-24.79-17.36-38.38-17.5.26 1.26-.73 4.95.89 5.49 20.25 6.33 9.14 32.15 5.42 46.54-1.56 4.66-2.21 5.77.54 10.12 1.85 3.49 4.82 9.28 6.64 12.81 1.23 2.4 3.15 6.17 4.36 8.61.22-.03 2.65 6.5 2.89 3.79zM111.07 158.33c1.25-5.44 4.14-13.91 4.62-19.36.09-.73.23-5.3 1.15-3.69 1.78 5.8 5.4 11.65 8.07 17.08 4.83 9.1 10.5 19.95 15.24 29.13 12.34 23.9 24.96 48.35 37.45 72.18.8 2.49 4.65 7.49 6.73 3.3.87-1.89 2.72-5.97 3.67-7.85 4.92-10.15 8.63-15.96 1.48-26.42-13.73-25.45-27.41-51.96-40.68-77.63-6.86-13.31-14.1-27.37-20.11-41.08-3.08-9.07-5.34-6.42-13.41-6.86-9.95-.11-25.93.09-35.98 0 .07 2.27-.22 4.49 1.07 6 22.08 4.86 16.41 22.24 11.62 38.51-3.14 10.45-6.34 21.31-9.5 31.75-3.05 10.43-6.71 22.39-9.72 32.8-5.24 14.07-6.3 36.23-24.3 39.45-.78.19-.6 1.29-.48 1.8l.32 4.12c13.79-.14 38.92-.21 52.99-.2 1.4-1.76.58-5.28-1.89-5.57-10.43-2.42-7.31-14.3-5.29-21.9.87-3.69 2.59-10.35 3.58-14.06 4.43-16.98 8.99-34.48 13.36-51.49z" class="light"/><path d="M214.11 213.47c15.15.08 37.83-.45 53.15-.34 1.99 3.89 2.96 8.76 4.16 12.92 1.06 5.81 5.17 15.79-1.77 19.29-3.02 1.17-6.34 1.96-4.52 6 9.62.05 37.89.29 47.96.19.39-.13 1.72 0 1.95-.19.45-1.12.09-2.82.03-4.04-16.27-5.16-19.37-24.51-24.59-38.57-3.52-10.49-7.4-22.71-10.88-33.26-3.5-10.78-8.68-26.79-12.17-37.73-4.39-13.86-9.72-29.37 8.97-34.27.72-.23 2.43-.71 2.52-1.66l-.02-2.85c0-.18-.37-.58-.65-.58h-36.47c-4.77-.02-7.15 4.11-8.9 7.81-2.61 5.09-6.22 12.44-8.82 17.55-.26 1.18-2.48 3.53-1.86 4.85 2.37 8.44 5.45 18.39 8.04 26.81 3.75-5.8 7.89-16.02 11.17-22.14.86-1.71 1.68 3.5 2.05 3.9 5.33 15.61 10.63 32.68 15.57 48.44-.3.06 3.32 8.24 1.58 7.55-12.87.03-39.76-.18-52.41-.2-2.09-6.35-4.62-14.78-6.87-21.01-.77-1.46-2.35 3.2-2.72 3.37l-4.46 8.52c-2.78 6.34-7.82 13.54-8.77 20.46.13 3.96 3.51 7.77 5.05 11.36l3.2 6.16c.48.49 1.67 4.16 2.69 4.06 8.22-13.68 2.99-12.41 17.77-12.4zM114.73 277.44c5.84 5.65 13.49 10.57 22.16 10.82.49-.05 4.36.32 4.57-.32l-.03-3.25c-8.2-5.67-11.47-9.4-9.99-21.67 3.29-19.65 10.56-39.84 15.28-59.23-5.01-9.26-10.76-21.1-15.83-30.28-6.76 21.67-12.86 44.23-19.25 66.01-3.98 15.65-10.58 30.59-29.23 30.24-1.2-.04-1.22 1.33-1.31 2.15-.17 3.84 11.06 5.83 14.3 6.69 7.63 1.05 11.84.88 19.35-1.16z" class="light"/><path d="M249.37 276.96c5.79 1.73 11.93 2.75 17.97 2.31 5.82-.25 12.24-1.85 17.65-4.15 1.74-.68 1.53-3.89.62-5.12-4.58-1.06-10-1.07-14.39-3.38-13.25-5.46-17.01-20.92-20.92-33.31-1.55-5.06-3.79-11.82-5.46-16.82h-27.32c1.87 9.05 5.54 18.4 7.84 27.37 2.56 9.26 6.41 19.48 4.29 29.15-2.02 11.14-13.68 6.47-10.22 15.22 12.27 1.02 21.66-2.45 29.96-11.27z" class="light"/><path d="M111.04 158.77c-4.38 17.02-8.93 34.5-13.36 51.49-1.34 10.38-13.2 31.47 1.71 35.96 2.47.25 3.3 3.85 1.89 5.57-14.19 0-39.1.06-52.99.2l-.32-4.12c-.08-.59-.34-1.51.48-1.8 18-3.22 19.06-25.38 24.3-39.45 6.27-21.37 12.85-43.21 19.22-64.56 4.75-16.33 10.56-33.54-11.62-38.51-1.29-1.51-1-3.72-1.07-6 10.15.15 25.99-.11 35.98 0 8.02.46 10.33-2.24 13.41 6.86 18.57 40.19 40.17 79.51 60.79 118.71 7.12 10.32 3.44 16.39-1.48 26.42-2.77 5.44-5.22 15.41-10.4 4.55-19.96-39.43-41.95-78.45-60.77-118.38-1.03-1.7-.99 3.25-1.15 3.69-.48 5.43-3.4 13.93-4.62 19.37" class="dark"/><path d="M214.09 213.92c-14.77-.01-9.56-1.28-17.77 12.4-1.01.08-2.22-3.48-2.69-4.06-11.36-18.78-9.2-19.28.51-37.98.97-1 6-13.48 7.17-11.89 2.24 6.22 4.8 14.68 6.87 21.01 12.59.02 39.61.27 52.41.2 1.69.56-1.77-7.21-1.58-7.55-5.86-16.39-10.53-38.11-17.62-52.34-3.28 6.13-7.42 16.34-11.17 22.14-1.3-8.74-10.95-24.34-6.18-31.65 5.67-7.74 7.04-23.33 17.72-25.36h36.47c1.16-.03.5 2.86.68 3.42-19.82 6.87-17.35 18.8-11.49 35.94 3.5 10.98 8.65 26.89 12.17 37.72 10.16 21.86 11.35 61.72 35.46 71.83.06 2.01 1.04 4.72-1.98 4.23-10.2.1-38.19-.14-47.96-.19-2.2-10.3 14.4.77 6.29-25.28-1.2-4.16-2.17-9.03-4.16-12.92-15.4-.11-37.93.42-53.15.34z" class="gold"/><path d="M236.76 190.3c-.81-.86-27.05 1.58-26.33-1.21-5.16-18.02-11.45-37.33-16.71-55.33-3.77-12.45-7.75-25.95-11.11-38.52-10.49-23.25 17.16-27.2 34.09-26.89 2.96-.37 3.9 4.49 1.44 6.45-10.63 2.73-10.93 15.23-8.83 24.09 7.39 30.77 18.42 61.09 27.44 91.42z" class="dark"/><path d="M114.71 277.88c-7.5 2.04-11.73 2.22-19.34 1.16-3.43-.75-19.16-3.98-12.99-8.84 17.97.8 25.7-15.12 29.23-30.24 6.39-21.78 12.49-44.34 19.25-66.01 5.06 9.12 10.84 21.06 15.83 30.28-2.93 11.36-6.57 23.81-9.66 35.17-3.78 14.64-12.87 37.49 4.37 45.73.44 4.89-.56 3.41-4.54 3.58-8.66-.27-16.31-5.15-22.16-10.82z" class="gold"/><path d="M249.49 276.89c-5.02 6.69-29.4 19.14-30.38 6.52 5.14-2.69 9.37-4.13 10.65-10.46 2.5-14.53-4.99-28.96-8.31-42.87-1.06-3.97-3.3-9.58-3.81-13.65 4.45 1.71 31.56-4.66 29.28 5.92 6.22 18.09 9.93 44.73 33.46 46.74 21.69 7.12-24.1 13.69-30.88 7.81z" class="dark"/><path d="m160.18 156.58-.17.62c-.04.15-.57-.19-.64-.34l-2.07-4.07-2.18-4.35-1.36-2.68-.81-1.58-3.1-6.03-.74-1.45-2.8-5.33c-.72-1.37-1.33-2.61-2.01-4.09-.28-.62.27-2.01.46-2.65l1.01-3.38 2.13-7.25 1.4-4.85 1.2-5.02c.45-1.9 1.3-6.58 1.38-8.38.1-2.22.09-4.29.07-6.51-.02-2.62-1.19-6.75-2.76-8.76s-3.87-3.88-6.35-4.83l-2.49-.95c-.48-.18-.92-.74-.92-1.24l.02-4.25 6.04.04c.88 0 1.77.13 2.63.19l2.16.17c.63.05 1.29.11 1.92.2l1.85.27 2.82.51c4.9.88 8.37 2.24 12.65 4.64s7.88 6.59 8.29 11.47c.29 3.4-.59 9.14-1.38 12.56l-1.31 5.6-.86 3.05-2.06 7.06-1.84 6.32-2.07 7.05-1.26 4.25-1.82 6.37-2.01 6.84-2.13 7.46-.91 3.29z" class="gold"/></svg>